<svg xml:space="preserve" viewBox="0 0 100 100" y="0px" x="0px" xmlns:xlink="http://www.w3.org/1999/xlink" xmlns="http://www.w3.org/2000/svg" id="Layer_1" version="1.1" style="margin: initial; display: block; shape-rendering: auto;" preserveAspectRatio="xMidYMid" width="200" height="200"><g class="ldl-scale" style="transform-origin: 50% 50%; transform: rotate(0deg) scale(0.8, 0.8);"><g class="ldl-ani"><g class="ldl-layer"><g class="ldl-ani" style="opacity: 1; transform-origin: 50px 50px; transform: matrix3d(0.91, 0, 0, 0, 0, 0.91, 0, 0, 0, 0, 0.91, 0, 0, 0, 0, 1); animation: 1s linear -1s infinite normal forwards running animate; transform-box: view-box;"><path d="M81.5,49.34c0.55-1.94,0.85-3.99,0.85-6.1c0-12.38-10.03-22.41-22.41-22.41c-9.09,0-16.9,5.41-20.42,13.18 c-1.9-0.85-4-1.34-6.22-1.34c-8.41,0-15.22,6.82-15.22,15.22c0,0.52,0.03,1.04,0.08,1.55C11.98,51.38,7.5,57.14,7.5,63.96 c0,8.27,6.59,14.98,14.8,15.2v0.02h54.97c8.41,0,15.22-6.82,15.22-15.22C92.5,57.02,87.85,51.17,81.5,49.34z" stroke-miterlimit="10" stroke-linejoin="round" stroke-linecap="round" stroke-width="3.5" stroke="#323334" fill="#F2F2F3" style="stroke-width: 3.5; fill: rgb(242, 242, 243); stroke: rgb(50, 51, 52);"></path></g></g><metadata xmlns:d="https://loading.io/stock/">




</metadata></g></g></svg>